<svg width="35" height="35" viewBox="0 0 35 35" fill="none" xmlns="http://www.w3.org/2000/svg">
<rect width="35" height="35" rx="15" fill="#7CB518"/>
<mask id="mask0_550_4969" style="mask-type:alpha" maskUnits="userSpaceOnUse" x="7" y="5" width="21" height="22">
<rect x="7.18506" y="5.38464" width="20.8148" height="21.5385" fill="#D9D9D9"/>
</mask>
<g mask="url(#mask0_550_4969)">
<path d="M8.91943 26.0149V22.4252H26.2651V26.0149H8.91943ZM10.654 20.6303V17.2649L18.5029 9.14313L21.7552 12.5085L13.9063 20.6303H10.654ZM12.3886 18.8354H13.1691L19.3268 12.5085L18.5029 11.656L12.3886 18.0277V18.8354ZM22.7309 11.5213L19.4786 8.15595L21.0397 6.54057C21.1987 6.36108 21.4011 6.27507 21.6468 6.28255C21.8925 6.29003 22.0949 6.37604 22.2539 6.54057L24.292 8.64954C24.451 8.81407 24.5305 9.01973 24.5305 9.26653C24.5305 9.51332 24.451 9.72646 24.292 9.90595L22.7309 11.5213Z" fill="white"/>
</g>
</svg>
