<svg width="65" height="65" viewBox="0 0 65 65" fill="none" xmlns="http://www.w3.org/2000/svg">
<g filter="url(#filter0_d_550_4977)">
<path d="M18.75 5.67901C22.7949 3.33917 27.4911 2 32.5 2C47.6877 2 60 14.3122 60 29.5C60 44.6877 47.6877 57 32.5 57C17.3122 57 5 44.6877 5 29.5C5 24.4911 6.33917 19.7949 8.67901 15.75" fill="white"/>
<path d="M18.75 5.67901C22.7949 3.33917 27.4911 2 32.5 2C47.6877 2 60 14.3122 60 29.5C60 44.6877 47.6877 57 32.5 57C17.3122 57 5 44.6877 5 29.5C5 24.4911 6.33917 19.7949 8.67901 15.75" stroke="black" stroke-width="2.42647" stroke-linecap="round"/>
</g>
<path d="M40.5881 31.118C40.5881 35.585 36.9668 39.2063 32.4999 39.2063C28.0328 39.2063 24.4116 35.585 24.4116 31.118C24.4116 26.651 28.0328 23.0298 32.4999 23.0298C36.9668 23.0298 40.5881 26.651 40.5881 31.118Z" stroke="black" stroke-width="2.02206" stroke-linecap="round" stroke-linejoin="round"/>
<g clip-path="url(#clip0_550_4977)">
<path d="M33.4301 15.8927L33.9131 16.1128C34.0006 15.9209 33.9661 15.6952 33.8252 15.5382L33.4301 15.8927ZM42.4461 20.0015L42.4544 19.4708C42.2434 19.4674 42.0506 19.5895 41.9631 19.7814L42.4461 20.0015ZM42.5789 14.1636C42.4573 14.4304 42.575 14.7452 42.8418 14.8667C43.1085 14.9883 43.4233 14.8706 43.5449 14.6039L42.5789 14.1636ZM36.7829 11.5222C36.6613 11.789 36.779 12.1038 37.0458 12.2254C37.3125 12.3469 37.6273 12.2292 37.7489 11.9625L36.7829 11.5222ZM37.751 9.82462C35.7059 8.89261 33.2925 9.79496 32.3605 11.8401L33.3265 12.2803C34.0153 10.7687 35.7992 10.1017 37.3108 10.7906L37.751 9.82462ZM43.7507 13.7255C45.2623 14.4144 45.9293 16.1982 45.2404 17.7098L46.2064 18.15C47.1384 16.1049 46.2361 13.6915 44.191 12.7595L43.7507 13.7255ZM37.9137 23.1205L34.0497 21.3596L33.6095 22.3256L37.4735 24.0865L37.9137 23.1205ZM34.0497 21.3596C33.4289 21.0766 33.0123 20.8856 32.7203 20.702C32.4414 20.5266 32.3456 20.3996 32.2999 20.2774L31.3056 20.6492C31.4652 21.0762 31.7758 21.3621 32.1553 21.6007C32.5218 21.8311 33.016 22.0551 33.6095 22.3256L34.0497 21.3596ZM31.9446 17.8725C31.6741 18.466 31.448 18.9593 31.3226 19.3736C31.1927 19.8027 31.1459 20.2222 31.3056 20.6492L32.2999 20.2774C32.2543 20.1553 32.2432 19.9966 32.3387 19.6812C32.4386 19.3511 32.6276 18.9336 32.9106 18.3127L31.9446 17.8725ZM40.9605 21.9813C40.6776 22.6021 40.4865 23.0187 40.303 23.3107C40.1275 23.5897 40.0005 23.6854 39.8784 23.7311L40.2501 24.7254C40.6771 24.5658 40.9631 24.2553 41.2017 23.8758C41.4321 23.5093 41.6561 23.0151 41.9265 22.4216L40.9605 21.9813ZM37.4735 24.0865C38.067 24.357 38.5603 24.583 38.9746 24.7084C39.4037 24.8383 39.8232 24.8851 40.2501 24.7254L39.8784 23.7311C39.7562 23.7768 39.5976 23.7879 39.2821 23.6924C38.952 23.5924 38.5345 23.4034 37.9137 23.1205L37.4735 24.0865ZM37.3108 10.7906C37.4484 10.8533 37.5787 10.925 37.7015 11.0044L38.2783 10.1132C38.112 10.0056 37.936 9.90895 37.751 9.82462L37.3108 10.7906ZM41.8514 9.36006C40.3635 8.68196 38.6633 9.06761 37.6032 10.1952L38.3766 10.9224C39.1346 10.1161 40.3497 9.84228 41.4112 10.3261L41.8514 9.36006ZM37.6032 10.1952C37.3317 10.484 37.1025 10.821 36.9297 11.2002L37.8956 11.6405C38.0197 11.3682 38.1835 11.1278 38.3766 10.9224L37.6032 10.1952ZM44.191 12.7595C44.006 12.6752 43.8176 12.6058 43.6273 12.5509L43.333 13.5708C43.4735 13.6114 43.6131 13.6628 43.7507 13.7255L44.191 12.7595ZM41.4112 10.3261C42.4728 10.8098 43.0633 11.9065 42.9521 13.0075L44.0083 13.1142C44.1638 11.5743 43.3394 10.0382 41.8514 9.36006L41.4112 10.3261ZM42.9521 13.0075C42.9237 13.288 42.8497 13.5693 42.7256 13.8416L43.6916 14.2819C43.8644 13.9027 43.9684 13.5086 44.0083 13.1142L42.9521 13.0075ZM32.9106 18.3127L33.9131 16.1128L32.9471 15.6726L31.9446 17.8725L32.9106 18.3127ZM33.8252 15.5382C33.0502 14.6745 32.8153 13.4019 33.3265 12.2803L32.3605 11.8401C31.6681 13.3593 31.9884 15.0806 33.035 16.2472L33.8252 15.5382ZM41.9631 19.7814L40.9605 21.9813L41.9265 22.4216L42.9291 20.2217L41.9631 19.7814ZM45.2404 17.7098C44.7293 18.8314 43.6147 19.489 42.4544 19.4708L42.4378 20.5322C44.0048 20.5568 45.5141 19.6692 46.2064 18.15L45.2404 17.7098ZM42.7256 13.8416L42.5789 14.1636L43.5449 14.6039L43.6916 14.2819L42.7256 13.8416ZM36.9297 11.2002L36.7829 11.5222L37.7489 11.9625L37.8956 11.6405L36.9297 11.2002Z" fill="black"/>
<path d="M41.4435 22.2014L41.9265 22.4216M41.9265 22.4216C41.6561 23.0151 41.4321 23.5093 41.2017 23.8758C40.9631 24.2553 40.6771 24.5658 40.2501 24.7254M41.9265 22.4216L40.9605 21.9813M41.9265 22.4216L42.9291 20.2217L41.9631 19.7814M33.9131 16.1128L33.4301 15.8927L33.8252 15.5382M33.9131 16.1128C34.0006 15.9209 33.9661 15.6952 33.8252 15.5382M33.9131 16.1128L32.9106 18.3127M33.9131 16.1128L32.9471 15.6726L31.9446 17.8725M33.8252 15.5382C33.0502 14.6745 32.8153 13.4019 33.3265 12.2803M33.8252 15.5382L33.035 16.2472C31.9884 15.0806 31.6681 13.3593 32.3605 11.8401M42.4544 19.4708L42.4461 20.0015L41.9631 19.7814M42.4544 19.4708C42.2434 19.4674 42.0506 19.5895 41.9631 19.7814M42.4544 19.4708C43.6147 19.489 44.7293 18.8314 45.2404 17.7098M42.4544 19.4708L42.4378 20.5322C44.0048 20.5568 45.5141 19.6692 46.2064 18.15M41.9631 19.7814L40.9605 21.9813M42.5789 14.1636C42.4573 14.4304 42.575 14.7452 42.8418 14.8667C43.1085 14.9883 43.4233 14.8706 43.5449 14.6039M42.5789 14.1636L43.5449 14.6039M42.5789 14.1636L42.7256 13.8416M43.5449 14.6039L43.6916 14.2819M36.7829 11.5222C36.6613 11.789 36.779 12.1038 37.0458 12.2254C37.3125 12.3469 37.6273 12.2292 37.7489 11.9625M36.7829 11.5222L37.7489 11.9625M36.7829 11.5222L36.9297 11.2002M37.7489 11.9625L37.8956 11.6405M37.751 9.82462C35.7059 8.89261 33.2925 9.79496 32.3605 11.8401M37.751 9.82462L37.3108 10.7906M37.751 9.82462C37.936 9.90895 38.112 10.0056 38.2783 10.1132L37.7015 11.0044C37.5787 10.925 37.4484 10.8533 37.3108 10.7906M32.3605 11.8401L33.3265 12.2803M33.3265 12.2803C34.0153 10.7687 35.7992 10.1017 37.3108 10.7906M43.7507 13.7255C45.2623 14.4144 45.9293 16.1982 45.2404 17.7098M43.7507 13.7255L44.191 12.7595M43.7507 13.7255C43.6131 13.6628 43.4735 13.6114 43.333 13.5708L43.6273 12.5509C43.8176 12.6058 44.006 12.6752 44.191 12.7595M45.2404 17.7098L46.2064 18.15M46.2064 18.15C47.1384 16.1049 46.2361 13.6915 44.191 12.7595M37.9137 23.1205L34.0497 21.3596M37.9137 23.1205L37.4735 24.0865M37.9137 23.1205C38.5345 23.4034 38.952 23.5924 39.2821 23.6924C39.5976 23.7879 39.7562 23.7768 39.8784 23.7311M34.0497 21.3596L33.6095 22.3256M34.0497 21.3596C33.4289 21.0766 33.0123 20.8856 32.7203 20.702C32.4414 20.5266 32.3456 20.3996 32.2999 20.2774M33.6095 22.3256L37.4735 24.0865M33.6095 22.3256C33.016 22.0551 32.5218 21.8311 32.1553 21.6007C31.7758 21.3621 31.4652 21.0762 31.3056 20.6492M37.4735 24.0865C38.067 24.357 38.5603 24.583 38.9746 24.7084C39.4037 24.8383 39.8232 24.8851 40.2501 24.7254M32.2999 20.2774L31.3056 20.6492M32.2999 20.2774C32.2543 20.1553 32.2432 19.9966 32.3387 19.6812C32.4386 19.3511 32.6276 18.9336 32.9106 18.3127M31.3056 20.6492C31.1459 20.2222 31.1927 19.8027 31.3226 19.3736C31.448 18.9593 31.6741 18.466 31.9446 17.8725M31.9446 17.8725L32.9106 18.3127M40.9605 21.9813C40.6776 22.6021 40.4865 23.0187 40.303 23.3107C40.1275 23.5897 40.0005 23.6854 39.8784 23.7311M39.8784 23.7311L40.2501 24.7254M41.8514 9.36006C40.3635 8.68196 38.6633 9.06761 37.6032 10.1952M41.8514 9.36006L41.4112 10.3261M41.8514 9.36006C43.3394 10.0382 44.1638 11.5743 44.0083 13.1142M37.6032 10.1952L38.3766 10.9224M37.6032 10.1952C37.3317 10.484 37.1025 10.821 36.9297 11.2002M38.3766 10.9224C39.1346 10.1161 40.3497 9.84228 41.4112 10.3261M38.3766 10.9224C38.1835 11.1278 38.0197 11.3682 37.8956 11.6405M41.4112 10.3261C42.4728 10.8098 43.0633 11.9065 42.9521 13.0075M36.9297 11.2002L37.8956 11.6405M42.9521 13.0075L44.0083 13.1142M42.9521 13.0075C42.9237 13.288 42.8497 13.5693 42.7256 13.8416M44.0083 13.1142C43.9684 13.5086 43.8644 13.9027 43.6916 14.2819M42.7256 13.8416L43.6916 14.2819" stroke="black" stroke-width="0.808824"/>
<path d="M32.4275 18.0925L41.4435 22.2013" stroke="black" stroke-width="1.06158" stroke-linecap="round" stroke-linejoin="round"/>
</g>
<path d="M44.5077 52.5517C44.186 46.7049 42.3959 42.4414 32.4376 42.4414C22.4796 42.4414 20.6895 46.7049 20.3677 52.5517" stroke="black" stroke-width="2.02206" stroke-linecap="round"/>
<defs>
<filter id="filter0_d_550_4977" x="0.551571" y="0.786743" width="63.8969" height="63.8971" filterUnits="userSpaceOnUse" color-interpolation-filters="sRGB">
<feFlood flood-opacity="0" result="BackgroundImageFix"/>
<feColorMatrix in="SourceAlpha" type="matrix" values="0 0 0 0 0 0 0 0 0 0 0 0 0 0 0 0 0 0 127 0" result="hardAlpha"/>
<feOffset dy="3.23529"/>
<feGaussianBlur stdDeviation="1.61765"/>
<feComposite in2="hardAlpha" operator="out"/>
<feColorMatrix type="matrix" values="0 0 0 0 0 0 0 0 0 0 0 0 0 0 0 0 0 0 0.25 0"/>
<feBlend mode="normal" in2="BackgroundImageFix" result="effect1_dropShadow_550_4977"/>
<feBlend mode="normal" in="SourceGraphic" in2="effect1_dropShadow_550_4977" result="shape"/>
</filter>
<clipPath id="clip0_550_4977">
<rect width="16.9853" height="16.9853" fill="white" transform="translate(34.4902 5.03271) rotate(24.5)"/>
</clipPath>
</defs>
</svg>
