<svg width="60" height="60" viewBox="0 0 60 60" fill="none" xmlns="http://www.w3.org/2000/svg">
<g id="Usuario Admi">
<g id="Vector" filter="url(#filter0_d_550_5022)">
<path d="M17.5 5.34455C21.1772 3.21743 25.4465 2 30 2C43.807 2 55 13.1929 55 27C55 40.807 43.807 52 30 52C16.1929 52 5 40.807 5 27C5 22.4465 6.21743 18.1772 8.34455 14.5" fill="white"/>
<path d="M17.5 5.34455C21.1772 3.21743 25.4465 2 30 2C43.807 2 55 13.1929 55 27C55 40.807 43.807 52 30 52C16.1929 52 5 40.807 5 27C5 22.4465 6.21743 18.1772 8.34455 14.5" stroke="black" stroke-width="2.47059" stroke-linecap="round"/>
</g>
<path id="Vector_2" d="M28.1619 39.2244H25.0693C24.1823 39.2244 23.7388 39.2244 23.3421 39.3113C21.9692 39.6118 20.7819 40.6679 20.1168 42.1807C19.9246 42.6177 19.7843 43.1369 19.5039 44.1757C19.1668 45.4236 18.9983 46.0476 18.9755 46.5509C18.8951 48.3266 19.8313 49.9298 21.2215 50.3971C21.6155 50.5296 22.1484 50.5296 23.2142 50.5296H29.081M28.1619 39.2244L30.0001 41.1086L31.8383 39.2244M28.1619 39.2244H31.8383M29.081 50.5296L30.0001 43.9349L30.9192 50.5296M29.081 50.5296H30.9192M31.8383 39.2244H34.931C35.8179 39.2244 36.2613 39.2244 36.658 39.3113C38.031 39.6118 39.2183 40.6679 39.8834 42.1807C40.0757 42.6177 40.2159 43.1369 40.4964 44.1757C40.8334 45.4236 41.0019 46.0476 41.0247 46.5509C41.1051 48.3266 40.1689 49.9298 38.7788 50.3971C38.3848 50.5296 37.8519 50.5296 36.7861 50.5296H30.9192M37.353 27.9193C37.353 32.0816 34.061 35.456 30.0001 35.456C25.9392 35.456 22.6472 32.0816 22.6472 27.9193C22.6472 23.7568 25.9392 20.3825 30.0001 20.3825C34.061 20.3825 37.353 23.7568 37.353 27.9193Z" stroke="black" stroke-width="2.05882" stroke-linecap="round" stroke-linejoin="round"/>
</g>
<defs>
<filter id="filter0_d_550_5022" x="0.470531" y="0.764709" width="59.0589" height="59.0588" filterUnits="userSpaceOnUse" color-interpolation-filters="sRGB">
<feFlood flood-opacity="0" result="BackgroundImageFix"/>
<feColorMatrix in="SourceAlpha" type="matrix" values="0 0 0 0 0 0 0 0 0 0 0 0 0 0 0 0 0 0 127 0" result="hardAlpha"/>
<feOffset dy="3.29412"/>
<feGaussianBlur stdDeviation="1.64706"/>
<feComposite in2="hardAlpha" operator="out"/>
<feColorMatrix type="matrix" values="0 0 0 0 0 0 0 0 0 0 0 0 0 0 0 0 0 0 0.25 0"/>
<feBlend mode="normal" in2="BackgroundImageFix" result="effect1_dropShadow_550_5022"/>
<feBlend mode="normal" in="SourceGraphic" in2="effect1_dropShadow_550_5022" result="shape"/>
</filter>
</defs>
</svg>
