<svg width="40" height="41" viewBox="0 0 40 41" fill="none" xmlns="http://www.w3.org/2000/svg">
<g id="Usuario Admi">
<rect width="31" height="31" transform="translate(4.5 1.75)" fill="#CF5C36"/>
<g id="Vector" filter="url(#filter0_d_850_4470)">
<path d="M12.25 3.82362C14.5298 2.5048 17.1768 1.75 20 1.75C28.5603 1.75 35.5 8.68958 35.5 17.25C35.5 25.8103 28.5603 32.75 20 32.75C11.4396 32.75 4.5 25.8103 4.5 17.25C4.5 14.4268 5.2548 11.7798 6.57362 9.5" fill="#CF5C36"/>
<path d="M12.25 3.82362C14.5298 2.5048 17.1768 1.75 20 1.75C28.5603 1.75 35.5 8.68958 35.5 17.25C35.5 25.8103 28.5603 32.75 20 32.75C11.4396 32.75 4.5 25.8103 4.5 17.25C4.5 14.4268 5.2548 11.7798 6.57362 9.5" stroke="white" stroke-width="1.52" stroke-linecap="round"/>
</g>
<path id="Vector_2" d="M18.8601 24.8291H16.9428C16.3928 24.8291 16.1179 24.8291 15.8719 24.8829C15.0207 25.0693 14.2846 25.724 13.8722 26.662C13.753 26.9329 13.6661 27.2548 13.4922 27.8989C13.2832 28.6726 13.1787 29.0595 13.1646 29.3715C13.1148 30.4724 13.6952 31.4664 14.5571 31.7561C14.8014 31.8383 15.1318 31.8383 15.7926 31.8383H19.43M18.8601 24.8291L19.9999 25.9973L21.1396 24.8291M18.8601 24.8291H21.1396M19.43 31.8383L19.9999 27.7496L20.5697 31.8383M19.43 31.8383H20.5697M21.1396 24.8291H23.057C23.6069 24.8291 23.8818 24.8291 24.1277 24.8829C24.979 25.0693 25.7151 25.724 26.1275 26.662C26.2467 26.9329 26.3336 27.2548 26.5076 27.8989C26.7165 28.6726 26.821 29.0595 26.8351 29.3715C26.8849 30.4724 26.3045 31.4664 25.4426 31.7561C25.1984 31.8383 24.868 31.8383 24.2072 31.8383H20.5697M24.5587 17.8199C24.5587 20.4006 22.5176 22.4927 19.9999 22.4927C17.4821 22.4927 15.441 20.4006 15.441 17.8199C15.441 15.2392 17.4821 13.1471 19.9999 13.1471C22.5176 13.1471 24.5587 15.2392 24.5587 17.8199Z" stroke="white" stroke-width="1.52" stroke-linecap="round" stroke-linejoin="round"/>
</g>
<defs>
<filter id="filter0_d_850_4470" x="0.446117" y="0.98999" width="39.1078" height="39.1083" filterUnits="userSpaceOnUse" color-interpolation-filters="sRGB">
<feFlood flood-opacity="0" result="BackgroundImageFix"/>
<feColorMatrix in="SourceAlpha" type="matrix" values="0 0 0 0 0 0 0 0 0 0 0 0 0 0 0 0 0 0 127 0" result="hardAlpha"/>
<feOffset dy="3.29412"/>
<feGaussianBlur stdDeviation="1.64706"/>
<feComposite in2="hardAlpha" operator="out"/>
<feColorMatrix type="matrix" values="0 0 0 0 0 0 0 0 0 0 0 0 0 0 0 0 0 0 0.25 0"/>
<feBlend mode="normal" in2="BackgroundImageFix" result="effect1_dropShadow_850_4470"/>
<feBlend mode="normal" in="SourceGraphic" in2="effect1_dropShadow_850_4470" result="shape"/>
</filter>
</defs>
</svg>
