<svg width="30" height="31" viewBox="0 0 30 31" fill="none" xmlns="http://www.w3.org/2000/svg">
<g id="Agregar">
<path id="Vector" d="M27.5 15.5C27.5 17.9723 26.7669 20.389 25.3934 22.4446C24.0199 24.5003 22.0676 26.1024 19.7835 27.0485C17.4995 27.9946 14.9861 28.2421 12.5614 27.7599C10.1366 27.2775 7.90933 26.087 6.16117 24.3389C4.41302 22.5906 3.22251 20.3634 2.74019 17.9386C2.25787 15.5139 2.50542 13.0005 3.45151 10.7165C4.39761 8.43238 5.99977 6.48015 8.05538 5.10663C10.111 3.73311 12.5278 3 15 3" stroke="white" stroke-width="2" stroke-linecap="round"/>
<path id="Vector_2" d="M18.75 15.5H15M15 15.5H11.25M15 15.5V11.75M15 15.5V19.25" stroke="white" stroke-width="2" stroke-linecap="round"/>
<path id="Vector_3" d="M18.125 3.39368C22.5175 4.52424 25.9756 7.98235 27.1062 12.3749" stroke="white" stroke-width="2" stroke-linecap="round"/>
</g>
</svg>
