<svg width="35" height="35" viewBox="0 0 35 35" fill="none" xmlns="http://www.w3.org/2000/svg">
<rect width="35" height="35" rx="15" fill="#EA2B1F"/>
<path d="M25.5304 12.0769H10.1636" stroke="white" stroke-width="3.0625" stroke-linecap="round"/>
<path d="M24.0236 14.1923L23.6078 20.03C23.4478 22.2764 23.3678 23.3997 22.5859 24.0844C21.804 24.7692 20.6014 24.7692 18.1963 24.7692H17.4973C15.092 24.7692 13.8895 24.7692 13.1076 24.0844C12.3257 23.3997 12.2457 22.2764 12.0857 20.03L11.6699 14.1923" stroke="white" stroke-width="3.0625" stroke-linecap="round"/>
<path d="M15.5874 16.3077L16.0394 20.5385" stroke="white" stroke-width="3.0625" stroke-linecap="round"/>
<path d="M20.1067 16.3077L19.6548 20.5385" stroke="white" stroke-width="3.0625" stroke-linecap="round"/>
<path d="M12.8755 12.0769C12.926 12.0769 12.9513 12.0769 12.9742 12.0764C13.7185 12.0587 14.3751 11.6157 14.6284 10.9603C14.6362 10.9401 14.6442 10.9177 14.6601 10.8728L14.7479 10.6264C14.8228 10.416 14.8603 10.3108 14.91 10.2215C15.1082 9.86513 15.4749 9.61769 15.8988 9.55433C16.005 9.53845 16.1235 9.53845 16.3604 9.53845H19.3338C19.5707 9.53845 19.6892 9.53845 19.7954 9.55433C20.2193 9.61769 20.586 9.86513 20.7842 10.2215C20.8339 10.3108 20.8713 10.416 20.9463 10.6264L21.034 10.8728C21.05 10.9176 21.058 10.9401 21.0658 10.9603C21.3191 11.6157 21.9757 12.0587 22.7201 12.0764C22.7429 12.0769 22.7681 12.0769 22.8187 12.0769" stroke="white" stroke-width="3.0625"/>
</svg>
