<svg width="35" height="39" viewBox="0 0 35 39" fill="none" xmlns="http://www.w3.org/2000/svg">
<g id="Group">
<path id="Vector" d="M32.6078 27.6999C30.3481 24.9342 28.7528 23.5264 28.7528 15.9017C28.7528 8.91942 25.1873 6.43184 22.2527 5.22369C21.8629 5.06354 21.496 4.69573 21.3772 4.29536C20.8624 2.54341 19.4193 1 17.5011 1C15.5828 1 14.1388 2.54429 13.6293 4.29712C13.5105 4.70189 13.1436 5.06354 12.7538 5.22369C9.81569 6.4336 6.25371 8.91238 6.25371 15.9017C6.24931 23.5264 4.65399 24.9342 2.39432 27.6999C1.45806 28.8456 2.27816 30.5658 3.91572 30.5658H31.0952C32.7239 30.5658 33.5388 28.8403 32.6078 27.6999Z" stroke="black" stroke-width="2" stroke-linecap="round" stroke-linejoin="round"/>
<path id="Vector_2" d="M23.1328 30.5658V31.9737C23.1328 33.4673 22.5395 34.8997 21.4834 35.9558C20.4272 37.012 18.9948 37.6053 17.5012 37.6053C16.0076 37.6053 14.5752 37.012 13.5191 35.9558C12.463 34.8997 11.8696 33.4673 11.8696 31.9737V30.5658" stroke="black" stroke-width="2" stroke-linecap="round" stroke-linejoin="round"/>
</g>
</svg>
