<svg width="36" height="36" viewBox="0 0 36 36" fill="none" xmlns="http://www.w3.org/2000/svg">
<g filter="url(#filter0_d_525_29036)">
<path d="M10.375 3.04018C12.6181 1.74263 15.2224 1 18 1C26.4223 1 33.25 7.82765 33.25 16.25C33.25 24.6723 26.4223 31.5 18 31.5C9.57765 31.5 2.75 24.6723 2.75 16.25C2.75 13.4724 3.49263 10.8681 4.79018 8.625" fill="#CF5C36"/>
<path d="M10.375 3.04018C12.6181 1.74263 15.2224 1 18 1C26.4223 1 33.25 7.82765 33.25 16.25C33.25 24.6723 26.4223 31.5 18 31.5C9.57765 31.5 2.75 24.6723 2.75 16.25C2.75 13.4724 3.49263 10.8681 4.79018 8.625" stroke="white" stroke-width="1.33456" stroke-linecap="round"/>
</g>
<path d="M22.4853 17.1474C22.4853 19.6245 20.4771 21.6327 18 21.6327C15.5228 21.6327 13.5147 19.6245 13.5147 17.1474C13.5147 14.6702 15.5228 12.6621 18 12.6621C20.4771 12.6621 22.4853 14.6702 22.4853 17.1474Z" stroke="white" stroke-width="1.11213" stroke-linecap="round" stroke-linejoin="round"/>
<g clip-path="url(#clip0_525_29036)">
<path d="M18.5158 8.70427L18.7836 8.82634C18.8321 8.71988 18.813 8.59476 18.7349 8.50769L18.5158 8.70427ZM23.5156 10.9828L23.5202 10.6885C23.4032 10.6866 23.2962 10.7543 23.2477 10.8607L23.5156 10.9828ZM23.5892 7.74541C23.5218 7.89334 23.5871 8.06791 23.735 8.13532C23.8829 8.20273 24.0575 8.13746 24.1249 7.98954L23.5892 7.74541ZM20.3751 6.28064C20.3077 6.42857 20.3729 6.60314 20.5208 6.67055C20.6688 6.73797 20.8433 6.6727 20.9108 6.52477L20.3751 6.28064ZM20.9119 5.33923C19.7778 4.82239 18.4395 5.32278 17.9226 6.45689L18.4583 6.70102C18.8403 5.86276 19.8295 5.49291 20.6678 5.87492L20.9119 5.33923ZM24.2391 7.50244C25.0773 7.88445 25.4472 8.87367 25.0651 9.71192L25.6008 9.95605C26.1177 8.82195 25.6173 7.48359 24.4832 6.96675L24.2391 7.50244ZM21.0021 12.7124L18.8594 11.7359L18.6153 12.2716L20.758 13.2481L21.0021 12.7124ZM18.8594 11.7359C18.5151 11.579 18.2841 11.473 18.1222 11.3712C17.9675 11.274 17.9144 11.2035 17.8891 11.1358L17.3377 11.3419C17.4262 11.5787 17.5984 11.7373 17.8088 11.8696C18.0121 11.9974 18.2861 12.1216 18.6153 12.2716L18.8594 11.7359ZM17.692 9.80215C17.542 10.1313 17.4166 10.4048 17.3471 10.6346C17.2751 10.8725 17.2491 11.1052 17.3377 11.3419L17.8891 11.1358C17.8637 11.068 17.8576 10.9801 17.9105 10.8051C17.9659 10.6221 18.0708 10.3906 18.2277 10.0463L17.692 9.80215ZM22.6917 12.0807C22.5349 12.425 22.4289 12.656 22.3271 12.8179C22.2298 12.9726 22.1594 13.0257 22.0916 13.051L22.2978 13.6024C22.5346 13.5139 22.6932 13.3417 22.8255 13.1312C22.9532 12.928 23.0774 12.6539 23.2274 12.3248L22.6917 12.0807ZM20.758 13.2481C21.0871 13.3981 21.3607 13.5234 21.5904 13.593C21.8284 13.665 22.061 13.691 22.2978 13.6024L22.0916 13.051C22.0239 13.0763 21.9359 13.0825 21.761 13.0295C21.5779 12.9741 21.3464 12.8693 21.0021 12.7124L20.758 13.2481ZM20.6678 5.87492C20.7441 5.9097 20.8164 5.94942 20.8845 5.99349L21.2043 5.49925C21.1121 5.43959 21.0145 5.386 20.9119 5.33923L20.6678 5.87492ZM23.1858 5.08161C22.3607 4.70557 21.4178 4.91944 20.8299 5.54475L21.2588 5.94799C21.6792 5.50087 22.353 5.34902 22.9417 5.6173L23.1858 5.08161ZM20.8299 5.54475C20.6794 5.70489 20.5523 5.8918 20.4564 6.10208L20.9921 6.34621C21.061 6.1952 21.1518 6.06189 21.2588 5.94799L20.8299 5.54475ZM24.4832 6.96675C24.3806 6.91999 24.2761 6.8815 24.1706 6.85106L24.0074 7.41669C24.0853 7.43916 24.1627 7.46766 24.2391 7.50244L24.4832 6.96675ZM22.9417 5.6173C23.5304 5.88558 23.8578 6.49372 23.7961 7.1043L24.3819 7.16345C24.4681 6.30953 24.0109 5.45765 23.1858 5.08161L22.9417 5.6173ZM23.7961 7.1043C23.7804 7.25985 23.7394 7.41584 23.6706 7.56685L24.2063 7.81097C24.3021 7.60069 24.3598 7.38215 24.3819 7.16345L23.7961 7.1043ZM18.2277 10.0463L18.7836 8.82634L18.2479 8.58221L17.692 9.80215L18.2277 10.0463ZM18.7349 8.50769C18.3051 8.02869 18.1749 7.32299 18.4583 6.70102L17.9226 6.45689C17.5387 7.29935 17.7163 8.25393 18.2967 8.90082L18.7349 8.50769ZM23.2477 10.8607L22.6917 12.0807L23.2274 12.3248L23.7834 11.1049L23.2477 10.8607ZM25.0651 9.71192C24.7817 10.3339 24.1636 10.6986 23.5202 10.6885L23.511 11.2771C24.3799 11.2907 25.2169 10.7985 25.6008 9.95605L25.0651 9.71192ZM23.6706 7.56685L23.5892 7.74541L24.1249 7.98954L24.2063 7.81097L23.6706 7.56685ZM20.4564 6.10208L20.3751 6.28064L20.9108 6.52477L20.9921 6.34621L20.4564 6.10208Z" fill="white"/>
<path d="M22.9596 12.2027L23.2274 12.3248M23.2274 12.3248C23.0774 12.6539 22.9532 12.928 22.8255 13.1312C22.6932 13.3417 22.5346 13.5139 22.2978 13.6024M23.2274 12.3248L22.6917 12.0807M23.2274 12.3248L23.7834 11.1049L23.2477 10.8607M18.7836 8.82634L18.5158 8.70427L18.7349 8.50769M18.7836 8.82634C18.8321 8.71988 18.813 8.59476 18.7349 8.50769M18.7836 8.82634L18.2277 10.0463M18.7836 8.82634L18.2479 8.58221L17.692 9.80215M18.7349 8.50769C18.3051 8.02869 18.1749 7.32299 18.4583 6.70102M18.7349 8.50769L18.2967 8.90082C17.7163 8.25393 17.5387 7.29935 17.9226 6.45689M23.5202 10.6885L23.5156 10.9828L23.2477 10.8607M23.5202 10.6885C23.4032 10.6866 23.2962 10.7543 23.2477 10.8607M23.5202 10.6885C24.1636 10.6986 24.7817 10.3339 25.0651 9.71192M23.5202 10.6885L23.511 11.2771C24.3799 11.2907 25.2169 10.7985 25.6008 9.95605M23.2477 10.8607L22.6917 12.0807M23.5892 7.74541C23.5218 7.89334 23.5871 8.06791 23.735 8.13532C23.8829 8.20273 24.0575 8.13746 24.1249 7.98954M23.5892 7.74541L24.1249 7.98954M23.5892 7.74541L23.6706 7.56685M24.1249 7.98954L24.2063 7.81097M20.3751 6.28064C20.3077 6.42857 20.3729 6.60314 20.5208 6.67055C20.6688 6.73797 20.8433 6.6727 20.9108 6.52477M20.3751 6.28064L20.9108 6.52477M20.3751 6.28064L20.4564 6.10208M20.9108 6.52477L20.9921 6.34621M20.9119 5.33923C19.7778 4.82239 18.4395 5.32278 17.9226 6.45689M20.9119 5.33923L20.6678 5.87492M20.9119 5.33923C21.0145 5.386 21.1121 5.43959 21.2043 5.49925L20.8845 5.99349C20.8164 5.94942 20.7441 5.9097 20.6678 5.87492M17.9226 6.45689L18.4583 6.70102M18.4583 6.70102C18.8403 5.86276 19.8295 5.49291 20.6678 5.87492M24.2391 7.50244C25.0773 7.88445 25.4472 8.87367 25.0651 9.71192M24.2391 7.50244L24.4832 6.96675M24.2391 7.50244C24.1627 7.46766 24.0853 7.43916 24.0074 7.41669L24.1706 6.85106C24.2761 6.8815 24.3806 6.91999 24.4832 6.96675M25.0651 9.71192L25.6008 9.95605M25.6008 9.95605C26.1177 8.82195 25.6173 7.48359 24.4832 6.96675M21.0021 12.7124L18.8594 11.7359M21.0021 12.7124L20.758 13.2481M21.0021 12.7124C21.3464 12.8693 21.5779 12.9741 21.761 13.0295C21.9359 13.0825 22.0239 13.0763 22.0916 13.051M18.8594 11.7359L18.6153 12.2716M18.8594 11.7359C18.5151 11.579 18.2841 11.473 18.1222 11.3712C17.9675 11.274 17.9144 11.2035 17.8891 11.1358M18.6153 12.2716L20.758 13.2481M18.6153 12.2716C18.2861 12.1216 18.0121 11.9974 17.8088 11.8696C17.5984 11.7373 17.4262 11.5787 17.3377 11.3419M20.758 13.2481C21.0871 13.3981 21.3607 13.5234 21.5904 13.593C21.8284 13.665 22.061 13.691 22.2978 13.6024M17.8891 11.1358L17.3377 11.3419M17.8891 11.1358C17.8637 11.068 17.8576 10.9801 17.9105 10.8051C17.9659 10.6221 18.0708 10.3906 18.2277 10.0463M17.3377 11.3419C17.2491 11.1052 17.2751 10.8725 17.3471 10.6346C17.4166 10.4048 17.542 10.1313 17.692 9.80215M17.692 9.80215L18.2277 10.0463M22.6917 12.0807C22.5349 12.425 22.4289 12.656 22.3271 12.8179C22.2298 12.9726 22.1594 13.0257 22.0916 13.051M22.0916 13.051L22.2978 13.6024M23.1858 5.08161C22.3607 4.70557 21.4178 4.91944 20.8299 5.54475M23.1858 5.08161L22.9417 5.6173M23.1858 5.08161C24.0109 5.45765 24.4681 6.30953 24.3819 7.16345M20.8299 5.54475L21.2588 5.94799M20.8299 5.54475C20.6794 5.70489 20.5523 5.8918 20.4564 6.10208M21.2588 5.94799C21.6792 5.50087 22.353 5.34902 22.9417 5.6173M21.2588 5.94799C21.1518 6.06189 21.061 6.1952 20.9921 6.34621M22.9417 5.6173C23.5304 5.88558 23.8578 6.49372 23.7962 7.1043M20.4564 6.10208L20.9921 6.34621M23.7962 7.1043L24.3819 7.16345M23.7962 7.1043C23.7804 7.25985 23.7394 7.41584 23.6706 7.56685M24.3819 7.16345C24.3598 7.38215 24.3021 7.60069 24.2063 7.81097M23.6706 7.56685L24.2063 7.81097" stroke="white" stroke-width="0.444853"/>
<path d="M17.9599 9.92383L22.9597 12.2024" stroke="white" stroke-width="0.58387" stroke-linecap="round" stroke-linejoin="round"/>
</g>
<path d="M24.6588 29.0329C24.4804 25.7906 23.4877 23.4263 17.9654 23.4263C12.4432 23.4263 11.4505 25.7906 11.2721 29.0329" stroke="white" stroke-width="1.11213" stroke-linecap="round"/>
<defs>
<filter id="filter0_d_525_29036" x="0.303306" y="0.33252" width="35.3934" height="35.3938" filterUnits="userSpaceOnUse" color-interpolation-filters="sRGB">
<feFlood flood-opacity="0" result="BackgroundImageFix"/>
<feColorMatrix in="SourceAlpha" type="matrix" values="0 0 0 0 0 0 0 0 0 0 0 0 0 0 0 0 0 0 127 0" result="hardAlpha"/>
<feOffset dy="1.77941"/>
<feGaussianBlur stdDeviation="0.889706"/>
<feComposite in2="hardAlpha" operator="out"/>
<feColorMatrix type="matrix" values="0 0 0 0 0 0 0 0 0 0 0 0 0 0 0 0 0 0 0.25 0"/>
<feBlend mode="normal" in2="BackgroundImageFix" result="effect1_dropShadow_525_29036"/>
<feBlend mode="normal" in="SourceGraphic" in2="effect1_dropShadow_525_29036" result="shape"/>
</filter>
<clipPath id="clip0_525_29036">
<rect width="9.41912" height="9.41912" fill="white" transform="translate(19.1037 2.68164) rotate(24.5)"/>
</clipPath>
</defs>
</svg>
